<svg version="1.1" id="Layer_1" xmlns="http://www.w3.org/2000/svg" xmlns:xlink="http://www.w3.org/1999/xlink" x="0px" y="0px"
	 width="350px" height="350px" viewBox="0 0 350 350" enable-background="new 0 0 350 350" xml:space="preserve">
<g>
	<circle fill="#FFFFFF" stroke="#CB4D27" stroke-width="4" stroke-miterlimit="10" cx="175.41" cy="172.189" r="78.804"/>
	<g>
		<path fill="#CB4D27" d="M236.772,145.064c0,0-15.59,6.827-22.031,6.055c-6.439-0.773-16.877-6.828-20.225-6.828l-9.406,18.68
			c0,0-8.76-1.802-11.594,3.35c-2.834,5.154,0.773,5.154,0.773,5.154s2.447-1.676,3.348-1.547
			c0.902,0.129,11.467,1.547,13.916,1.547c2.447,0,10.047,1.932,12.107,1.804c2.062-0.129,17.006-6.827,22.418-7.087
			c5.41-0.258,10.82-0.258,10.82-0.258v-20.869H236.772z"/>
		<path fill="#CB4D27" d="M160.118,186.288"/>
		<path fill="#CB4D27" d="M172.356,141.586c3.479,2.061,7.988,3.865,9.404,4.38c0.902-1.933,1.805-3.606,2.578-5.153
			c-2.062-0.773-8.891-2.704-9.664-3.092C171.454,136.047,168.233,139.138,172.356,141.586z"/>
		<path fill="#CB4D27" d="M178.026,153.695c0.9-1.804,1.803-3.607,2.576-5.281c-2.189-0.645-13.27-3.607-14.559-4.123
			c-4.509-1.546-7.214,2.189-3.091,4.252C167.075,150.604,175.192,153.309,178.026,153.695z"/>
		<path fill="#CB4D27" d="M159.216,156.4c5.152,1.418,12.367,3.994,15.074,4.769c1.029-2.063,1.932-3.995,2.834-5.8
			c-2.834-0.514-13.14-2.576-15.202-3.22C156.125,150.475,155.094,155.241,159.216,156.4z"/>
		<path fill="#CB4D27" d="M163.21,164.518c3.736,1.416,6.957,2.447,8.117,2.705c1.029-2.062,1.158-2.449,2.189-4.51
			c-1.16-0.516-3.865-1.029-9.791-3.09C161.535,158.978,158.701,162.713,163.21,164.518z"/>
		
			<ellipse transform="matrix(0.2935 -0.956 0.956 0.2935 6.9481 279.9354)" fill="#CB4D27" cx="192.858" cy="135.267" rx="1.804" ry="5.539"/>
		<path fill="#CB4D27" d="M179.442,184.356l-4.51-2.061c-1.029,0.127-2.576-0.129-4.25-0.645c-2.963-0.902-5.025-2.449-4.768-3.348
			c0,0,0.129,0,0.129-0.131l1.289-2.963c0,0-3.864-1.804-6.699-1.804c-2.963,0-13.914,7.472-19.839,7.86
			c-4.638,0.514-17.65-5.412-26.41-7.86v24.478c9.92-0.387,20.999,2.963,23.318,3.221c2.962,0.258,11.466,6.957,14.042,7.6
			c2.575,0.646,11.853,0.773,11.853,0.773s6.183,0.902,7.601,0c1.416-0.902,1.158-4.25,1.158-4.25s2.318,0,3.607-1.934
			c1.287-1.932-0.387-4.252-0.387-4.252s2.705,0.129,3.865-2.447s-1.287-4.766-1.287-4.766s2.576,0.645,3.863-2.576
			C183.179,186.288,179.442,184.356,179.442,184.356z"/>
	</g>
</g>
<line fill="none" stroke="#FFFFFF" stroke-width="6" stroke-miterlimit="10" stroke-dasharray="10" x1="175.41" y1="13.222" x2="175.41" y2="88.778"/>
<line fill="none" stroke="#FFFFFF" stroke-width="6" stroke-miterlimit="10" stroke-dasharray="10" x1="175.41" y1="260.889" x2="175.41" y2="336.445"/>
</svg>
