<?xml version="1.0" encoding="utf-8"?>
<!-- Generator: Adobe Illustrator 15.0.2, SVG Export Plug-In . SVG Version: 6.00 Build 0)  -->
<!DOCTYPE svg PUBLIC "-//W3C//DTD SVG 1.1//EN" "http://www.w3.org/Graphics/SVG/1.1/DTD/svg11.dtd">
<svg version="1.1" id="Layer_1" xmlns="http://www.w3.org/2000/svg" xmlns:xlink="http://www.w3.org/1999/xlink" x="0px" y="0px"
	 width="150px" height="150px" viewBox="0 0 150 150" enable-background="new 0 0 150 150" xml:space="preserve">
<g>
	<circle fill="#FFFFFF" stroke="#CB4D27" stroke-width="2" stroke-miterlimit="10" cx="75.234" cy="69.837" r="27.446"/>
	<g>
		<path fill="#CB4D27" d="M96.605,60.39c0,0-5.43,2.378-7.672,2.109c-2.244-0.269-5.879-2.378-7.045-2.378l-3.275,6.505
			c0,0-3.051-0.627-4.039,1.167c-0.987,1.795,0.27,1.795,0.27,1.795s0.852-0.584,1.165-0.539c0.314,0.044,3.994,0.539,4.848,0.539
			c0.852,0,3.498,0.673,4.217,0.628c0.718-0.045,5.922-2.377,7.807-2.468c1.885-0.09,3.77-0.09,3.77-0.09V60.39H96.605z"/>
		<path fill="#CB4D27" d="M69.908,74.747"/>
		<path fill="#CB4D27" d="M74.171,59.178c1.212,0.717,2.782,1.346,3.275,1.525c0.314-0.673,0.628-1.256,0.897-1.795
			c-0.718-0.269-3.096-0.942-3.365-1.077C73.857,57.249,72.735,58.325,74.171,59.178z"/>
		<path fill="#CB4D27" d="M76.146,63.396c0.312-0.628,0.627-1.257,0.896-1.84c-0.763-0.224-4.622-1.256-5.07-1.436
			c-1.571-0.539-2.513,0.762-1.077,1.48C72.331,62.319,75.158,63.261,76.146,63.396z"/>
		<path fill="#CB4D27" d="M69.594,64.338c1.794,0.494,4.307,1.391,5.25,1.661c0.358-0.718,0.673-1.391,0.987-2.02
			c-0.987-0.179-4.577-0.897-5.294-1.121C68.518,62.274,68.159,63.934,69.594,64.338z"/>
		<path fill="#CB4D27" d="M70.985,67.165c1.301,0.494,2.423,0.853,2.827,0.942c0.358-0.718,0.404-0.853,0.762-1.57
			c-0.404-0.18-1.346-0.359-3.41-1.077C70.402,65.235,69.415,66.537,70.985,67.165z"/>
		
			<ellipse transform="matrix(0.2939 -0.9558 0.9558 0.2939 2.9552 117.9548)" fill="#CB4D27" cx="81.312" cy="56.977" rx="0.628" ry="1.93"/>
		<path fill="#CB4D27" d="M76.639,74.074l-1.571-0.718c-0.358,0.045-0.897-0.044-1.48-0.224c-1.032-0.314-1.75-0.853-1.66-1.167
			c0,0,0.045,0,0.045-0.045l0.448-1.032c0,0-1.346-0.628-2.333-0.628c-1.032,0-4.846,2.603-6.909,2.737
			c-1.616,0.179-6.147-1.885-9.198-2.737v8.524c3.455-0.134,7.313,1.033,8.121,1.123c1.032,0.089,3.993,2.422,4.891,2.646
			c0.897,0.225,4.128,0.27,4.128,0.27s2.154,0.313,2.647,0c0.494-0.314,0.404-1.48,0.404-1.48s0.808,0,1.256-0.674
			c0.448-0.673-0.135-1.48-0.135-1.48s0.942,0.045,1.346-0.853s-0.448-1.66-0.448-1.66s0.897,0.226,1.346-0.897
			C77.939,74.747,76.639,74.074,76.639,74.074z"/>
	</g>
</g>
<g>
	<line fill="#FFFFFF" x1="75.234" y1="5.13" x2="75.234" y2="39.838"/>
	<g>
		<line fill="none" stroke="#FFFFFF" stroke-width="3" stroke-miterlimit="10" x1="75.234" y1="5.13" x2="75.234" y2="7.63"/>
		
			<line fill="none" stroke="#FFFFFF" stroke-width="3" stroke-miterlimit="10" stroke-dasharray="4.244,4.244" x1="75.234" y1="11.874" x2="75.234" y2="35.216"/>
		<line fill="none" stroke="#FFFFFF" stroke-width="3" stroke-miterlimit="10" x1="75.234" y1="37.338" x2="75.234" y2="39.838"/>
	</g>
</g>
<g>
	<line fill="#FFFFFF" x1="75.234" y1="99.838" x2="75.234" y2="134.546"/>
	<g>
		<line fill="none" stroke="#FFFFFF" stroke-width="3" stroke-miterlimit="10" x1="75.234" y1="99.838" x2="75.234" y2="102.338"/>
		
			<line fill="none" stroke="#FFFFFF" stroke-width="3" stroke-miterlimit="10" stroke-dasharray="4.244,4.244" x1="75.234" y1="106.582" x2="75.234" y2="129.924"/>
		<line fill="none" stroke="#FFFFFF" stroke-width="3" stroke-miterlimit="10" x1="75.234" y1="132.046" x2="75.234" y2="134.546"/>
	</g>
</g>
<polygon fill="#FFFFFF" stroke="#FFFFFF" stroke-width="3" stroke-miterlimit="10" points="80.58,127.216 75.234,141.115 
	69.889,127.216 "/>
</svg>
