<svg version="1.1" id="Layer_1" xmlns="http://www.w3.org/2000/svg" xmlns:xlink="http://www.w3.org/1999/xlink" x="0px" y="0px" width="100px" height="100px" viewBox="0 0 100 100" enable-background="new 0 0 100 100" xml:space="preserve">
    <path fill="#FFFFFF" stroke="#FFFFFF" stroke-width="1.5" stroke-miterlimit="10" d="M50.625,24C36.473,24,25,35.473,25,49.625
	S36.473,75.25,50.625,75.25S76.25,63.777,76.25,49.625S64.777,24,50.625,24z M31.843,46.042l-0.432-0.252
	c-0.743-0.434-1.553-0.798-2.478-1.113c-0.475-0.161-0.955-0.294-1.426-0.395l-0.488-0.104l1.045-4.889l0.489,0.104
	c0.663,0.142,1.333,0.327,1.989,0.55c1.245,0.422,2.355,0.923,3.394,1.531l0.432,0.252L31.843,46.042z M37.08,52.311
	c-0.901-1.501-1.664-2.738-2.574-3.844l-0.317-0.386l3.861-3.177l0.318,0.386c1.125,1.367,2.023,2.822,2.999,4.445l0.257,0.429
	l-4.286,2.577L37.08,52.311z M46.338,60.096l-0.49-0.098c-2.157-0.43-3.989-1.459-5.599-3.15l-0.345-0.361l3.621-3.447l0.344,0.361
	c0.888,0.932,1.826,1.469,2.955,1.693l0.49,0.098L46.338,60.096z M57.143,57.945c-0.996,0.51-2.101,0.951-3.282,1.314
	c-0.698,0.213-1.381,0.395-2.03,0.535l-0.488,0.107l-1.067-4.885l0.488-0.107c0.517-0.113,1.066-0.258,1.633-0.432
	c0.902-0.277,1.733-0.607,2.471-0.986l0.445-0.227l2.276,4.453L57.143,57.945z M67.832,51.997l-3.108-1.812
	c-0.804,1.386-1.716,2.831-2.919,4.176l-0.334,0.371l-3.723-3.338l0.334-0.371c0.908-1.015,1.652-2.2,2.324-3.355l-3.195-1.863
	L68.66,38.37L67.832,51.997z"/>
</svg>
