<?xml version="1.0" encoding="utf-8"?>
<!-- Generator: Adobe Illustrator 15.0.2, SVG Export Plug-In . SVG Version: 6.00 Build 0)  -->
<!DOCTYPE svg PUBLIC "-//W3C//DTD SVG 1.1//EN" "http://www.w3.org/Graphics/SVG/1.1/DTD/svg11.dtd">
<svg version="1.1" id="Layer_1" xmlns="http://www.w3.org/2000/svg" xmlns:xlink="http://www.w3.org/1999/xlink" x="0px" y="0px"
	 width="150px" height="150px" viewBox="0 0 150 150" enable-background="new 0 0 150 150" xml:space="preserve">
<g>
	<circle fill="#FFFFFF" stroke="#CB4D27" stroke-width="1.7" stroke-miterlimit="10" cx="74.889" cy="75.367" r="21.322"/>
	<g>
		<path fill="#CB4D27" d="M91.491,68.028c0,0-4.218,1.847-5.96,1.638c-1.743-0.209-4.566-1.847-5.473-1.847l-2.545,5.053
			c0,0-2.37-0.487-3.137,0.906c-0.767,1.395,0.21,1.395,0.21,1.395s0.662-0.454,0.905-0.418c0.245,0.034,3.102,0.418,3.765,0.418
			c0.662,0,2.718,0.522,3.276,0.488c0.558-0.035,4.601-1.847,6.064-1.917c1.465-0.069,2.928-0.069,2.928-0.069v-5.646H91.491z"/>
		<path fill="#CB4D27" d="M70.751,79.182"/>
		<path fill="#CB4D27" d="M74.063,67.087c0.941,0.557,2.162,1.046,2.544,1.185c0.244-0.523,0.488-0.976,0.697-1.395
			c-0.558-0.209-2.405-0.731-2.614-0.836C73.819,65.588,72.947,66.424,74.063,67.087z"/>
		<path fill="#CB4D27" d="M75.597,70.363c0.244-0.488,0.487-0.976,0.697-1.429c-0.592-0.174-3.59-0.976-3.938-1.115
			c-1.22-0.418-1.952,0.592-0.837,1.149C72.634,69.527,74.83,70.259,75.597,70.363z"/>
		<path fill="#CB4D27" d="M70.508,71.095c1.394,0.383,3.346,1.081,4.079,1.29c0.278-0.558,0.523-1.081,0.767-1.569
			c-0.767-0.139-3.556-0.697-4.113-0.871C69.671,69.492,69.393,70.782,70.508,71.095z"/>
		<path fill="#CB4D27" d="M71.588,73.291c1.01,0.384,1.882,0.663,2.196,0.732c0.278-0.558,0.313-0.663,0.592-1.22
			c-0.313-0.14-1.045-0.279-2.648-0.836C71.135,71.792,70.369,72.803,71.588,73.291z"/>
		
			<ellipse transform="matrix(0.2933 -0.956 0.956 0.2933 -6.2426 122.3098)" fill="#CB4D27" cx="79.61" cy="65.377" rx="0.488" ry="1.499"/>
		<path fill="#CB4D27" d="M75.98,78.658l-1.22-0.557c-0.278,0.035-0.697-0.035-1.15-0.174c-0.802-0.245-1.359-0.663-1.29-0.906
			c0,0,0.035,0,0.035-0.035l0.348-0.802c0,0-1.045-0.488-1.812-0.488c-0.801,0-3.764,2.022-5.367,2.126
			c-1.255,0.139-4.775-1.464-7.146-2.126v6.622c2.684-0.104,5.681,0.803,6.309,0.872c0.802,0.069,3.102,1.882,3.799,2.056
			c0.697,0.176,3.207,0.209,3.207,0.209s1.673,0.244,2.057,0s0.313-1.149,0.313-1.149s0.627,0,0.976-0.522
			c0.348-0.523-0.105-1.15-0.105-1.15s0.732,0.034,1.046-0.662c0.314-0.697-0.348-1.29-0.348-1.29s0.697,0.175,1.046-0.697
			C76.99,79.182,75.98,78.658,75.98,78.658z"/>
	</g>
</g>
<g>
	<g>
		<line fill="none" stroke="#FFFFFF" stroke-width="3" stroke-miterlimit="10" x1="74.889" y1="16.75" x2="74.889" y2="19.25"/>
		
			<line fill="none" stroke="#FFFFFF" stroke-width="3" stroke-miterlimit="10" stroke-dasharray="4.244,4.244" x1="74.889" y1="23.494" x2="74.889" y2="46.836"/>
		<line fill="none" stroke="#FFFFFF" stroke-width="3" stroke-miterlimit="10" x1="74.889" y1="48.958" x2="74.889" y2="51.458"/>
	</g>
</g>
<g>
	<g>
		<line fill="none" stroke="#FFFFFF" stroke-width="3" stroke-miterlimit="10" x1="74.889" y1="99.334" x2="74.889" y2="101.834"/>
		
			<line fill="none" stroke="#FFFFFF" stroke-width="3" stroke-miterlimit="10" stroke-dasharray="4.244,4.244" x1="74.889" y1="106.078" x2="74.889" y2="129.42"/>
		<line fill="none" stroke="#FFFFFF" stroke-width="3" stroke-miterlimit="10" x1="74.889" y1="131.542" x2="74.889" y2="134.042"/>
	</g>
</g>
</svg>
